/* XPM */
static char *terminal_xpm[] = {
/* columns rows colors chars-per-pixel */
"128 128 63 1 ",
"  c #010101",
". c #0A0A0A",
"X c #131313",
"o c #1C1C1C",
"O c #232323",
"+ c #2B2B2B",
"@ c #353535",
"# c #3B3B3B",
"$ c #434343",
"% c #4B4B4B",
"& c #535353",
"* c #5B5B5B",
"= c #636363",
"- c #6B6B6B",
"; c #6F7070",
": c #747474",
"> c #7B7B7B",
", c #848484",
"< c #888887",
"1 c #8B8B8B",
"2 c #949494",
"3 c #9C9C9C",
"4 c #9E9FA0",
"5 c #A3A4A4",
"6 c #A6A8A9",
"7 c #ACADAE",
"8 c #ADB0AF",
"9 c #AEAFB0",
"0 c #AEB0B1",
"q c #B3B4B5",
"w c #B6B7B8",
"e c #B7B8B9",
"r c #BBBCBC",
"t c #BEBFC0",
"y c #BFC0C1",
"u c #C3C3C4",
"i c #C7C8C7",
"p c #C6C7C8",
"a c #C7C8C9",
"s c #CBCCCC",
"d c #CECFD0",
"f c #D0CFD0",
"g c #CFD0D1",
"h c #D3D4D4",
"j c #D7D8D7",
"k c #D5D7D8",
"l c #D7D8D9",
"z c #DBDCDC",
"x c #DEDFE0",
"c c #DFE0E1",
"v c #E3E4E4",
"b c #E6E7E8",
"n c #E7E8E9",
"m c #EBEBEC",
"M c #EFF0EF",
"N c #EFEFF0",
"B c #EFF0F0",
"V c #F2F2F3",
"C c #F7F8F7",
"Z c #F7F7F8",
"A c #F7F8F8",
"S c #FCFDFD",
"D c None",
/* pixels */
"DDDDDDDDDDDDDDDDDDDDDDDDDDDDDDDDDDDDDDDDDDDDDDDDDDDDDDDDDDDDDDDDDDDDDDDDDDDDDDDDDDDDDDDDDDDDDDDDDDDDDDDDDDDDDDDDDDDDDDDDDDDDDDDD",
"DDDDDDDDDDDDDDDDDDDDDDDDDDDDDDDDDDDDDDDDDDDDDDDDDDDDDDDDDDDDDDDDDDDDDDDDDDDDDDDDDDDDDDDDDDDDDDDDDDDDDDDDDDDDDDDDDDDDDDDDDDDDDDDD",
"DDDDDDDDDDDDDDDDDDDDDDDDDDDDDDDDDDDDDDDDDDDDDDDDDDDDDDDDDDDDDDDDDDDDDDDDDDDDDDDDDDDDDDDDDDDDDDDDDDDDDDDDDDDDDDDDDDDDDDDDDDDDDDDD",
"DDDDDDDDDDDDDDDDDDDDDDDDDDDDDDDDDDDDDDDDDDDDDDDDDDDDDDDDDDDDDDDDDDDDDDDDDDDDDDDDDDDDDDDDDDDDDDDDDDDDDDDDDDDDDDDDDDDDDDDDDDDDDDDD",
"DDDDDDDDDDDDDDDDDDDDDDDDDDDDDDDDDDDDDDDDDDDDDDDDDDDDDDDDDDDDDDDDDDDDDDDDDDDDDDDDDDDDDDDDDDDDDDDDDDDDDDDDDDDDDDDDDDDDDDDDDDDDDDDD",
"DDDDDDDDDDDDDDDDDDDDDDDDDDDDDDDDDDDDDDDDDDDDDDDDDDDDDDDDDDDDDDDDDDDDDDDDDDDDDDDDDDDDDDDDDDDDDDDDDDDDDDDDDDDDDDDDDDDDDDDDDDDDDDDD",
"DDDDDDDDDDDDDDDDDDDDDDDDDDDDDDDDDDDDDDDDDDDDDDDDDDDDDDDDDDDDDDDDDDDDDDDDDDDDDDDDDDDDDDDDDDDDDDDDDDDDDDDDDDDDDDDDDDDDDDDDDDDDDDDD",
"DDDDDDDDDDDDDDDDDDDDDDDDDDDDDDDDDDDDDDDDDDDDDDDDDDDDDDDDDDDDDDDDDDDDDDDDDDDDDDDDDDDDDDDDDDDDDDDDDDDDDDDDDDDDDDDDDDDDDDDDDDDDDDDD",
"DDDDDDDDDDDDDDDDDDDDDDDDDDDDDDDDDDDDDDDDDDDDDDDDDDDDDDDDDDDDDDDDDDDDDDDDDDDDDDDDDDDDDDDDDDDDDDDDDDDDDDDDDDDDDDDDDDDDDDDDDDDDDDDD",
"DDDDDDDDDDDDDDDDDDDDDDDDDDDDDDDDDDDDDDDDDDDDDDDDDDDDDDDDDDDDDDDDDDDDDDDDDDDDDDDDDDDDDDDDDDDDDDDDDDDDDDDDDDDDDDDDDDDDDDDDDDDDDDDD",
"DDDDDDDDDDDDDDDDDDDDDDDDDDDDDDDDDDDDDDDDDDDDDDDDDDDDDDDDDDDDDDDDDDDDDDDDDDDDDDDDDDDDDDDDDDDDDDDDDDDDDDDDDDDDDDDDDDDDDDDDDDDDDDDD",
"DDDDDDDDDDDDDDDDDDDDDDDDDDDDDDDDDDDDDDDDDDDDDDDDDDDDDDDDDDDDDDDDDDDDDDDDDDDDDDDDDDDDDDDDDDDDDDDDDDDDDDDDDDDDDDDDDDDDDDDDDDDDDDDD",
"DDDDDDDDDDDDDDDDDDDDDDDDDDDDDDDDDDDDDDDDDDDDDDDDDDDDDDDDDDDDDDDDDDDDDDDDDDDDDDDDDDDDDDDDDDDDDDDDDDDDDDDDDDDDDDDDDDDDDDDDDDDDDDDD",
"DDDDDDDDDDDDDDDDDDDDDDDDDDDDDDDDDDDDDDDDDDDDDDDDDDDDDDDDDDDDDDDDDDDDDDDDDDDDDDDDDDDDDDDDDDDDDDDDDDDDDDDDDDDDDDDDDDDDDDDDDDDDDDDD",
"DDDDDDDDDDDDDDDDDDDDDDDDDDDDDDDDDDDDDDDDDDDDDDDDDDDDDDDDDDDDDDDDDDDDDDDDDDDDDDDDDDDDDDDDDDDDDDDDDDDDDDDDDDDDDDDDDDDDDDDDDDDDDDDD",
"DDDDD0qerupsdkkkkkklklzllzlzzzzzzzxxxxxxvcvvccbvvvvvvvbbvnnnnnmbmmmmmmmmmmmNmNmMNNNBNVVVVVVVVVCVCVZZZCCZSCSCCMVNMmnbvvvzzlkkfDDD",
"DDDDD7uupdfhlzzzxxxxcccvcccvcvcvvvvvvvbbvbbbbbbbbmbmbmmmmmmmmmmmmmmNMNNNVVVVVMVVVVVVVVVZCVZZVAAZZZZZCSZZZCSZCCCVNMmmmbbvvczzfDDD",
"DDDDD7qwttppfkkkkkkkkklllllzzzzzzzxxxxxxxxxxcvvcvcvvvvvvbbnnnnnbmmmnnmmmmmmmmmNNNmNVVVVVVVVVVVVZCCZVCCZCZSCSCVNMMmnbvvczzjjjfDDD",
"DDDDD0qettpsfkkkllkllzlzzzzzzzxzxzxcxccccccvvcvvvvbvbbbbbbnnnmbmnnmmmmmmmMmNVmVmVNVNVVVVVVVCAACVVZCCCZCSSSZZCVVMMmnnvvvzzjjfjDDD",
"DDDDD0qetupsfklkllllllzlzzlzzzxzzxccccxcvccvvvvvvvvvbvbbbbnnnnmmmmmmmmmMmNMmmVMVNVVNVVVVVCVCZVCCZZCSZZSSSZSSCCVMMMmnvvcxzjfffDDD",
"DDDDD9wrtuphlccccccvcvvvvvvbbbvbbbbbbbbmmmmmmmmmMMmNmNNNMMMMMMVVVVVVCVCVVZZZZZZZSCSSSSSSSSSSSSSSSSSSSSSSSSSSSSSSCCVVMmnxjjhffDDD",
"DDDDD9wetuu4699qqwwwwerrtttyyuuuiiiiissfsfsfffffhhhjjjjzzzxxzzvccxxxzxxzzzjzjjjjfkfkhffffsffffssfsssipsssissuuuyrrrwq77fzjhffDDD",
"DDDDDqqttpw*.................................... ................................................................ ...@&uxjhfhDDD",
"DDDDDqwttpt;#o@++@+++@++++++++++++++++++++++++++++++++O+O++O++O+O+O+O+OOO+OOOOOOOOOOOOOOOOoOOOOOoOOOOOoOooOoOooOOo   @*izjhffDDD",
"DDDDDqettse;#$:--;---------=-=--=-===-================*==*********=******&****&*&&&*&*&&&&&&&%&&&%%&%%%&%&%%%%%&#X   @=uzjffsDDD",
"DDDDDwwtupt-##-================*=*==**=*=***********&**&&***&**&&&&&&&&&&&&&%&&%&&&%%&%&%%%%%%%%%%%%%%%$$%$%%%$O     @=uzffssDDD",
"DDDDDwrtudt;##-===========*==**=*=**=**************&*&&**&*&&*&&&&&&&&&&&&%&%&&&&%%%%%%%%%%%%%%%%%$%$%$%$%$%$#X      @=uzhfffDDD",
"DDDDDwetust;#@-=======*=*==**=**=************&*&&&&*&*&&&&&&&&&&&&&&%&&%%&%%&%%%%&%%%%%%%%%%%%$%$%%$%$%$$$%$+.       @=ujjffsDDD",
"DDDDDwrtudt:##-===*==*==*=**=*******&**&**&**&***&&&&&&*&&&&&%&%&%&%&%%&%&%%%%%%%%%%%%%%%%%%$%%$%$$$$$$$$$#X         @=ujhfssDDD",
"DDDDDwrupft;#@=====**=***********&******&*&&&*&&&&&&&&&&&&&%&&&&%&&%&%&%%%%%%%%%%%%%%$$%%$$%%$$%$%$$$$$$$+.          @=pjffsiDDD",
"DDDDDwrupfy:##=**=****************&**&&*&**&&&&&&&&&&%&&%&%&%&%&%%%&%%%%%%%%%%%%$%%%$$%%$%$$$$$$$$$$$$%#o            #=ujhfssDDD",
"DDDDDwruafy:#@=*=*****=*****&**&*&**&&*&&&&&&&&&&&&&&&&%&%&&%%&%%&%%%%%%%%%%%%$$%$$$$%$$$$$$$$$$$$$#$$@.             #-ujhfssDDD",
"DDDDDetuify:$@=*****;2;*****&*&*&*&&&&&&&&&&&&&%&&%&&%&%&%&%%%%%%%%%%%%$%%$%%$$%%$$$$$$$$$$$$$$$$#$$#o               @-ukfssiDDD",
"DDDDDerpsft>$@**&***1Sv7>****&&&&&&&&&&&&&&&%&%&%&&%%%%%%%%%%%%%%%%$%$%%$%$%$%$$$$$$$$$$$#$$#$#$#$$@X                #=ukffiiDDD",
"DDDDDrtusgu:$+******1SSSMu,=*&&&&&&&&&%&&&&&&%&%&%%%&%%%%%%%%%$%$%%%$%$%$$$$$$$$$$$$$$$#$$#$$#$#$#o                  #-ykffssDDD",
"DDDDDryusdu>$@**&*&&:jSSSSSs2-**&&&&&%&&%%%%%&%%%%%%%%%%$%%%$%%%%$$%$$%$$%%$$$$$$$$$$$$$$#$#$##$@X                   #=uhfssiDDD",
"DDDDDrypsfp>$@*&&&&**=<pVSSSSv6:*&&&%&&%%&%%%%%%%%%%%%%%%%$%$%%$$%$$$$$$$$$$$$#$$#$$$#####$####O.                    #-rksssiDDD",
"DDDDDrupshp>$+*&&&&&&&&*:6zSSSSMt,*&&%%%%%%%%%%%%%$%$%$%$$%$$$$%$$$$$$$$$$$$$$$##$##$#$######@X                      #-ykssspDDD",
"DDDDDrupskp>$@*&&&&&&&&&&&=<sCSSSSf2=&%%%%%%%%%%%%$%$%%$%$$%$$$$$$$$$$$$$##$$###$#$#########O.                       #-uhfiipDDD",
"DDDDDtupskp>$+&&&&&&%&%&&&&&*:6vSSSSv:%%%%$%%$%$$$%%$$$$$$$$$$$$$$$$#$#$#$###$#############X                         #-rhssppDDD",
"DDDDDrusskp>$+&&&&%%&%&%%%%%&%&-3vSSS2%%%$%$%%$%$%$$$$$$$$$$$$#$#$$#$$####$#########@####O.                          #-thssiuDDD",
"DDDDDruiskp>%+&&%&%&&%%%%%&%%&-4hSSSS1$%%$$%$$$$$$$$$$$#$#$$$#$$$#$###$##############@#@o                            #;thsiiuDDD",
"DDDDDuusfls,$+&%%%%%%%%%%&&*>wmSSSSl3*%$$%$$$$$$$$$$$$$$$#$###$##$##############@@#@@#+.                             #;rhsiiiDDD",
"DDDDDuusfli,$+&%%%%%%%%%&=2sSSSSCs,*%$$$$$$$$$$$$#$$$$#$#$$##$###########@###@@#@#@#@o                               #;thsiiuDDD",
"DDDDDupsfls,%+&%%%%%%%&>8bSSSSb7:&$%$$$$$$$$$$$$$#$$$####$#############@@#@@#@#@#@#+X                                #;tfsipuDDD",
"DDDDDupsfli,%O%%$%%%&1sSSSSSj3=%$%$$$$$$$$#$$#$##$###$############@##@@##@#@@@@@@@o                                  $;rfspuuDDD",
"DDDDDusskls,%O%%%%$%>SSSSCi,*$%$$$$$$$$$#$#$$###$################@#@#@@@@@@@@@@@+X                                   #;tgsppuDDD",
"DDDDDuishzs,%+%$$$%$,SSb7;&$$$$#$$$##$#$##$##$###########@##@#@@@@@@@#@@@@@@@@@o.                                    $;rfipuuDDD",
"DDDDDusshzf<%O%$$%$%:f3=%$$$$$$$#$$#$$##$###############@#@#@#@@#@@@@@@@@++@@+X                                      #;rfspuyDDD",
"DDDDDusdhzs<%O%$$$$$%%$$$$$#$##$###$######&*=*$##@@#@@@@#@@@@@@@@@@@@@+@@@@@O.                                       #:rssuuyDDD",
"DDDDDussjzf<%O$$$$#$$$$$#$$##$##$#########2CZM=###@#@#@@@@@@@@@@@@@+@@+@+@+X                                         $:rsapuuDDD",
"DDDDDpsfhzf<%O$$$$$#$#$#$##$###$########@#3SSS-#@@@@@@@@@@@@@@+@+@+@+@+@@O.                                          $:edsuurDDD",
"DDDDDpsfjxf1%O$$#$#$#$#################@#@2VCM=@@@@@@@@@+@@+@@@@@@+@++++X                                            $:rsiutuDDD",
"DDDDDasfjcf1%O$$$#$##############@#@#@#@@#%***##@@@@@@@@@@@@++@+@+@+@@OX .    .                                      #:rsiuurDDD",
"DDDDDpskjcf<%o############@##@#@@#@#@@@@#@@#@@@@@@@@@@@@@@@@@@@@@@@@@o. .. ..  . . .                                 $;rsiuutDDD",
"DDDDDsshjcf2%O$#########@###@#@#@@#@@#@@@@@@@@@@@##@@@@@@@@@@@@@@+@+X......... . .. .. ..                            $:rspuurDDD",
"DDDDDsshlvh1%O#####@#@####@@@#@@@#@@@#@@#@#@@#@@@@@@@@@@@@@@@@@@@@O...X................ . .  ..                      $:rsputrDDD",
"DDDDDssklvh1%O####@##@@@@@@@@@@@@@@#@@#@@@#@@@@#@#@#@##@@#@@@@@@@o...X.....XX................ . ..   .               $:esuuyrDDD",
"DDDDDsfhzvh1&o####@##@@@@@#@@#@@@@@#@##@@#@#@#@#@#@#@@#@@#@@@@@+XXXXXXXXXX..X.XX.XX.............. ...  .             $>eipuyrDDD",
"DDDDDsfjzvh2%o#@@@@@@@@@@@@@@@####@@@#@@#@#@#@#@#@#@#@@@@@@#@@OXXX.XXXXXXXXXXX.XX.XXX.XXX.X........ .. ...           $:riuyrrDDD",
"DDDDDsfjzvh2%o@@@@@@@@@##@#@@#@@@#@#@#@#@#@#@#@#@#@#@#@###@#+oXXXXXXXXXXXXXoXXXXXXXXXXXXX.X.....X.........   .       $:esuutrDDD",
"DDDDDshjxvj1&o#@@@@@@#@@#@@@#@#@@##@####@##@############@##OXooXXXoooXoXooXXXXXXoXXXXXXXXXXXXXXX..X.......... .      $:eiutrrDDD",
"DDDDDshlxbj2%o@@@@@@@#@@@#@#@@####@#@##@####@##########@#@OooooooooooooooXoXoXooXXoXXXXoXXXXXXXXXXX........... .. .  $:wputrrDDD",
"DDDDDshlxbj2&o@@@@@@@@@##@#@##@#@##############@@##@@###+oooooooooooooooooooooooooooXoXooXXXXXXXXXXXXXXXX......... . $>wpuurrDDD",
"DDDDDfjjcbj2&o#@@@@@@@#@#@@@#@########################@+ooooooooooOooOooooooOooooooooooooooXoXoXXoXXXXXXX.X......... %>wiytreDDD",
"DDDDDfjzcmj2&O@@@@#@##@#@#####################$######@OoOoOOOOOOOoOOOOOOOOoOOoOOOooOooooooooooXoXooXXXXXXXXXXX.X.... $>qiytrrDDD",
"DDDDDhjjcnj2&O@@#@@#@##@#################$#######$$#+OOOOOOOOOOOOOOOOOOOOOOOOOOOOOoOOoooOooooooooooXoXXoXXXXXX..X... %>wuytrrDDD",
"DDDDDfjzvnj2&O#@@#@@#@@#@##@########$######$#$$##$@OOOOOOOO+OO+OOOOOOOOOOOOOOOOOOOOOOOOOOOoOoOoooooooooXXoXXXXXXX.XX.%>quutewDDD",
"DDDDDjjzvmz2&O@#@#@#######@##########$#$$#$##$$$#@OOOOOO++O+O+OO+++O+OO++OO+OOOOO+OOOOOOOOOOOoooOoOoooooooXXXXXXXXXX.%>qptrrwDDD",
"DDDDDjjzvnz2*O@@#@@#@#@########$#$#$#$$##$$$#$##++O++++++O++++++++++++++++++++++O++O+O+OOOOOOOOOOOooooOooooooooXXXXX.%>wutrrwDDD",
"DDDDDjjzvmz2*O#@#@##########$###$#$#$#$$$##$$$@++++++++++++++++++++++++++++++++++++++O+OOOOOOOOOOOOOoOoOoooooooXoXXXX%>qutrwwDDD",
"DDDDDfjcvmz3*O#####@######$###$$#$#$#$##$$#$#++++++++@+++@++@+@+++@+@+@+++++@+++++++++++++++++O+OOOOOOoOOOooooooXooXX%>wutrrwDDD",
"DDDDDjjcvmj2*+#@@########$##$$$#$$#$$$$$$$$@+++++++@++@++@+@+@+@+@@@@@+@@@+@++@++++++++++++++O++++OOOOOOOOOoooOoooooX%>wurrewDDD",
"DDDDDjjxvmz3=O#@@#########$#$##$$#$#$#$#$$@++@@+@@@+@@@@@@@@@@@@@@@@@@@@@@@@@@@@@@@@@@+@@++++++++O++OO+OOOOOOOoOOoooo%>qurrewDDD",
"DDDDDhjxcmz2*+@########$#$#$##$#$$$$$$$$#+@+@+@@@@@@@@@@@@@@@@@@@@@@@@@@@@@@@@@@@@@@@+@+@+@++@++++++++O+OOOOOOOOOoooo%>qurrewDDD",
"DDDDDhjxvmz3=+######$#$#$#$#$$$$$#$$$$$#@+@@@@@@@@@@@@#@#@##@#####@##@#@@#@#@#@@@@@@@@@@@@+@@++@++++++++++O+OOOOOOoOo&>qyrewwDDD",
"DDDDDfjxcmj3=+###$#$#$#$$#$$#$$$$$$$$#@@@@@#@#@#@@#####@######################@###@@@@#@@@@@@@@+@@@++++++++O+OOOOOOOo&>qyrwwqDDD",
"DDDDDjjxcnz3=+$#####$#$#$$$$$$$$$$$$#@@@@@@@#@########################################@@@@#@@@@@@@+@+@+++++++++OOOOOo&>qyrewqDDD",
"DDDDDhjjcbj3=+####$#$#$#$$$$$$$%$%$#@@@#@##############$####$##$#$$##$$####$$##############@@@@@@@@@@@+@@+@++++++++OO&>qyrwwqDDD",
"DDDDDfjjcnz3=@###$##$$$$$$$$$$$$$#@@##@##########$#$$$#$$$$$$$$$$$$$$$$$$$#$$#$$$#$#$###########@@#@@@@@@++@++++++O+O&>qyrwwqDDD",
"DDDDDfjzxbj3-@###$##$$$$$$$$$$%$#@#########$##$$$#$$$$$$$$$$$$$$$$$$$$$$$$$$$$$$$$$$$#$##$#######@###@@@@@@@+@@+++++O*>qrewqqDDD",
"DDDDDhjzcvj3-+#$$#$$$$$$$$$%%$$########$$$#$$$$$$$$$$$$%$$$%%$$%%$$$%%%$$$$%$$%$$$$$$$$$#$#$$########@#@@@@@@@++++++O*>0tewqqDDD",
"DDDDDfhzcbj3-@$##$$$$$$$$$%$$########$$$$$$$$$$$$%$$%$$$%$%%$%%%%$%%%%%$%%$%%$$$$$$$$$$$$$$$$##$########@#@@@@@@+@@++*>qreeqqDDD",
"DDDDDfhzxbj3-@#$$#$$$$$$%$%$####$#$$#$$$$$$$$$%$$%%%%%%%%%%%%%%%%%%%%%%%%%%$%%%%%%%$%%$$$$$$$$$$$$#########@@@@@@@@++&>0teww0DDD",
"DDDDDfhjxbj4-@$#$$$$$$$$$$###$#$$#$$$$$$$$$%%%%$%%%%%%%%%%%%&%%%%%%%%%%%%%&%%%%%%%%%%$%$$%$$$$$$$$$##$########@@@@@@+*>0rew00DDD",
"DDDDDfhjxmj3-@$$$$$$$$%%$$###$$$$$$$$%%$%%%%%%%%%%%&&%&%&%%&%&&&&%&&%&&&%&%&%&&%&%%%%%%&%%%%%%$$$$$$$$$#########@#@@@*>0reqq0DDD",
"DDDDDfhjjbj3;@$$$$$$%$$$##$$$$$$$$$$%$%%%%%%%%%&%%%&%&&&&&%&&&&&&&&&&&&&&%&&&&&%&%%%%%%%%%%%%%%%$%$$$$$$$#$#######@@@*>7reqq0DDD",
"DDDDDffjzvj3;@$$$$%$%$$#$$$$$$$%%%%%%%%%%%%&%&%&&&&&&&&&&&&&&&&&&&&&&&&&&&&&&&&&&&&&&&%&%%%%%%%%%$%%$$$$$$$$$#$####@@*>qreq00DDD",
"DDDDDsfjzvj4:#$$$%$%$#$$$$$$$%%%%%%%%%%%&%&&%&&&&&&&*&&&*&*&*&&&*&*&*&*&&&&&&&&&&&&&&&&&%%&%%%%%%%%$%$$%$$$$$$######@=>9ee000DDD",
"DDDDDffjjvj4:#$$$%$$$$$$$$$%%$%%%%%%&%&&&&&&&&&&&&*&&****&**********************&*&&*&&&&&&&&%&%%%%%%%$%%$$$$$$$#$###*>9rqq80DDD",
"DDDDDffjzcj4:$$$$$$$$$$$%%%$%%%%%&%&&%&&&&&&&*&*&********************************&**&&&&*&&&&&&&&%&%%%%%$%%$$$$$$$###*>9eqq80DDD",
"DDDDDsfhzxj3:#$%$#$$$$%$$%%%%%%%&%&&&&&&&&***&**************=**==*=***=*****************&&*&&&&&&&&%&%&%%%%%%$%$$$$$#=>7rqq89DDD",
"DDDDDffjjxh5:$$$$$$$$%$%%%%&&&%&&&&&&&&**********=***==*=*=======*==*======*=*=*************&*&*&&&&&&%&%%%%%%%$$$$$#=>9eq009DDD",
"DDDDDsfjjxj4:@###$$$$$$$%$%%%%%&%&&&&&&*&&&&&***&******=*=***=**=*=****==*=***********&**&&*&&&&&&%%%%%%%%%$$$$$$$$##=>9ew007DDD",
"DDDDDffhjcj3,*====-=---------;;:;:::::::>::>:>>>>>>>>>>>>>>>>>>>>>>,,>>>>>>>>>>>>>>>>>:>::>:::::::::;;;;;--;----=-===-:9eq007DDD",
"DDDDDifhjcf7zVMMMVMMVMVMVVMMVMMMMVMMVVVVVVVVVVMMVVMVVVVVVBVVVVVBMCVMNMVVMVVVVVVVVVMVMVVVVVMVMVVMMVVMMMMMNNMMMmMBBmMNVx26wwq07DDD",
"DDDDDifhjzxvVVVVVVVVVVNVNNNNNNNNNNNNmmmmmmmmmmmmmnnmmnnnmbbmbbbbbnbbvbvvbvvvvvvvvvvvcvvcvccccccccxcxcxxxxlxxllkggggaagyeeqq88DDD",
"DDDDDsshjzcvnMNMmMmmmmmmmmmnmmnnmnnnmnbbnnbnvnnvvvvvvvvvvcccccvcxxxxxxxxczxzxzxlxlxlzzlzllzzlllkjjkkhkkkkkkgddgaapyyyeeeeq088DDD",
"DDDDDishjzcvmmNmmMmMmmmmmmmmmnmnnmnnbnnbbbbbnvvvnvvvvvvvvvcbvcccxxxxxxxxzczcxlxxlxxlxlzlzzllllllkllkkkhhkgkkggaaappyyrreqq88eDDD",
"DDDDDisfjjxvnMmMMmmmmmmmmmmmnmmnnnnnnbbbvbvbvbvvvvvvvvvccvccxcccxxxxxxzxxzxzzxlxxllzzlzlllllllkkkhkhhkkhkhgggdgaappyyyeeeqq80DDD",
"DDDDDishhzxvmmmmmmmmmmmmmmnmmmbbnbbbbnnbvbvbvvvvvvvvcvxvcccccccxxxxxxxzxzxzzlzzllxllllllllllkkkkhkhkkkhhkkgggdssapuyytrewq000DDD",
"DDDDDisfhzxcbMmmmmmmmnmmnmnnbbnbbnbbvbvnvvvvvvvvvvcvvcvxcccccxxxxxxxzxzxzzzzzxlxlllxlllzllllkkkhkhkkhhhhgkkggdsaauuyttrrww000DDD",
"DDDDDpsfkjzvvmmmmmmmmmnnnnnnnnbbnnbnnvvvbvvvvvvvcvvccvxxxcxxxxxxzxxzxzzzzzzzzlzlllllllllklllkhkhhhhhhhhhhkhhgdsaauuutteew0q00DDD",
"DDDDDisfhjzvbmmmmmnmnmnnnnnnbnnvvbvvnvvvvvvvvvcvccxvxcccxxxxxxxxzxxzzzzzzlzzlzlzllllklkkkkkhkkhkhhhhhhhhhhghdddaauuyteeeww00qDDD",
"DDDDDshkzxvbmMVVVMMMMBMMBBBNNNNNNmNmmmmmmmmmnmmmnmnnnnnbbbbbbbvbvbvvvvvvvxvxcvccvvcccxxxxxxzxlzzxxlxzzzlzlzlkkhhdssapuyttttqqDDD",
"DDDDD378qqwruuuyuyuyytyrtrrrrreeeeeeeeeewwqwwqweqqqqeeqqq0q0qq0088qw0000q9000070880q09777077797986880000009079666656554432341DDD",
"DDDDDDDDDDDDDDDDDDDDDDDDDDDDDDDDDDDDDDDDDDDDDDDDDDDDDDDDDDDDDDDDDDDDDDDDDDDDDDDDDDDDDDDDDDDDDDDDDDDDDDDDDDDDDDDDDDDDDDDDDDDDDDDD",
"DDDDDDDDDDDDDDDDDDDDDDDDDDDDDDDDDDDDDDDDDDDDDDDDDDDDDDDDDDDDDDDDDDDDDDDDDDDDDDDDDDDDDDDDDDDDDDDDDDDDDDDDDDDDDDDDDDDDDDDDDDDDDDDD",
"DDDDDDDDDDDDDDDDDDDDDDDDDDDDDDDDDDDDDDDDDDDDDDDDDDDDDDDDDDDDDDDDDDDDDDDDDDDDDDDDDDDDDDDDDDDDDDDDDDDDDDDDDDDDDDDDDDDDDDDDDDDDDDDD",
"DDDDDDDDDDDDDDDDDDDDDDDDDDDDDDDDDDDDDDDDDDDDDDDDDDDDDDDDDDDDDDDDDDDDDDDDDDDDDDDDDDDDDDDDDDDDDDDDDDDDDDDDDDDDDDDDDDDDDDDDDDDDDDDD",
"DDDDDDDDDDDDDDDDDDDDDDDDDDDDDDDDDDDDDDDDDDDDDDDDDDDDDDDDDDDDDDDDDDDDDDDDDDDDDDDDDDDDDDDDDDDDDDDDDDDDDDDDDDDDDDDDDDDDDDDDDDDDDDDD",
"DDDDDDDDDDDDDDDDDDDDDDDDDDDDDDDDDDDDDDDDDDDDDDDDDDDDDDDDDDDDDDDDDDDDDDDDDDDDDDDDDDDDDDDDDDDDDDDDDDDDDDDDDDDDDDDDDDDDDDDDDDDDDDDD",
"DDDDDDDDDDDDDDDDDDDDDDDDDDDDDDDDDDDDDDDDDDDDDDDDDDDDDDDDDDDDDDDDDDDDDDDDDDDDDDDDDDDDDDDDDDDDDDDDDDDDDDDDDDDDDDDDDDDDDDDDDDDDDDDD",
"DDDDDDDDDDDDDDDDDDDDDDDDDDDDDDDDDDDDDDDDDDDDDDDDDDDDDDDDDDDDDDDDDDDDDDDDDDDDDDDDDDDDDDDDDDDDDDDDDDDDDDDDDDDDDDDDDDDDDDDDDDDDDDDD",
"DDDDDDDDDDDDDDDDDDDDDDDDDDDDDDDDDDDDDDDDDDDDDDDDDDDDDDDDDDDDDDDDDDDDDDDDDDDDDDDDDDDDDDDDDDDDDDDDDDDDDDDDDDDDDDDDDDDDDDDDDDDDDDDD",
"DDDDDDDDDDDDDDDDDDDDDDDDDDDDDDDDDDDDDDDDDDDDDDDDDDDDDDDDDDDDDDDDDDDDDDDDDDDDDDDDDDDDDDDDDDDDDDDDDDDDDDDDDDDDDDDDDDDDDDDDDDDDDDDD",
"DDDDDDDDDDDDDDDDDDDDDDDDDDDDDDDDDDDDDDDDDDDDDDDDDDDDDDDDDDDDDDDDDDDDDDDDDDDDDDDDDDDDDDDDDDDDDDDDDDDDDDDDDDDDDDDDDDDDDDDDDDDDDDDD",
"DDDDDDDDDDDDDDDDDDDDDDDDDDDDDDDDDDDDDDDDDDDDDDDDDDDDDDDDDDDDDDDDDDDDDDDDDDDDDDDDDDDDDDDDDDDDDDDDDDDDDDDDDDDDDDDDDDDDDDDDDDDDDDDD",
"DDDDDDDDDDDDDDDDDDDDDDDDDDDDDDDDDDDDDDDDDDDDDDDDDDDDDDDDDDDDDDDDDDDDDDDDDDDDDDDDDDDDDDDDDDDDDDDDDDDDDDDDDDDDDDDDDDDDDDDDDDDDDDDD",
"DDDDDDDDDDDDDDDDDDDDDDDDDDDDDDDDDDDDDDDDDDDDDDDDDDDDDDDDDDDDDDDDDDDDDDDDDDDDDDDDDDDDDDDDDDDDDDDDDDDDDDDDDDDDDDDDDDDDDDDDDDDDDDDD",
"DDDDDDDDDDDDDDDDDDDDDDDDDDDDDDDDDDDDDDDDDDDDDDDDDDDDDDDDDDDDDDDDDDDDDDDDDDDDDDDDDDDDDDDDDDDDDDDDDDDDDDDDDDDDDDDDDDDDDDDDDDDDDDDD",
"DDDDDDDDDDDDDDDDDDDDDDDDDDDDDDDDDDDDDDDDDDDDDDDDDDDDDDDDDDDDDDDDDDDDDDDDDDDDDDDDDDDDDDDDDDDDDDDDDDDDDDDDDDDDDDDDDDDDDDDDDDDDDDDD",
"DDDDDDDDDDDDDDDDDDDDDDDDDDDDDDDDDDDDDDDDDDDDDDDDDDDDDDDDDDDDDDDDDDDDDDDDDDDDDDDDDDDDDDDDDDDDDDDDDDDDDDDDDDDDDDDDDDDDDDDDDDDDDDDD",
"DDDDDDDDDDDDDDDDDDDDDDDDDDDDDDDDDDDDDDDDDDDDDDDDDDDDDDDDDDDDDDDDDDDDDDDDDDDDDDDDDDDDDDDDDDDDDDDDDDDDDDDDDDDDDDDDDDDDDDDDDDDDDDDD",
"DDDDDDDDDDDDDDDDDDDDDDDDDDDDDDDDDDDDDDDDDDDDDDDDDDDDDDDDDDDDDDDDDDDDDDDDDDDDDDDDDDDDDDDDDDDDDDDDDDDDDDDDDDDDDDDDDDDDDDDDDDDDDDDD",
"DDDDDDDDDDDDDDDDDDDDDDDDDDDDDDDDDDDDDDDDDDDDDDDDDDDDDDDDDDDDDDDDDDDDDDDDDDDDDDDDDDDDDDDDDDDDDDDDDDDDDDDDDDDDDDDDDDDDDDDDDDDDDDDD",
"DDDDDDDDDDDDDDDDDDDDDDDDDDDDDDDDDDDDDDDDDDDDDDDDDDDDDDDDDDDDDDDDDDDDDDDDDDDDDDDDDDDDDDDDDDDDDDDDDDDDDDDDDDDDDDDDDDDDDDDDDDDDDDDD",
"DDDDDDDDDDDDDDDDDDDDDDDDDDDDDDDDDDDDDDDDDDDDDDDDDDDDDDDDDDDDDDDDDDDDDDDDDDDDDDDDDDDDDDDDDDDDDDDDDDDDDDDDDDDDDDDDDDDDDDDDDDDDDDDD"
};
